<svg width="16" height="16" viewBox="0 0 16 16" fill="none" xmlns="http://www.w3.org/2000/svg">
<rect width="16" height="16" fill="#04B6AB"/>
<path d="M6.48643 6.59108V9.36262H7.20951C7.43392 9.36262 7.61261 9.33349 7.74559 9.27522C7.87857 9.20864 7.98246 9.11709 8.05726 9.00057C8.12375 8.88405 8.16946 8.74256 8.19439 8.5761C8.21933 8.40132 8.23179 8.20157 8.23179 7.97685C8.23179 7.75213 8.21933 7.55654 8.19439 7.39008C8.16946 7.2153 8.11959 7.06549 8.04479 6.94064C7.88688 6.7076 7.58767 6.59108 7.14718 6.59108H6.48643ZM5.21481 14.2815V5.39258H7.25938C8.7554 5.39258 9.50341 6.26232 9.50341 8.00182C9.50341 8.52616 9.4203 8.97144 9.25408 9.33765C9.09616 9.70386 8.81358 9.99932 8.40633 10.224L9.77769 14.2815H8.43126L7.24691 10.4862H6.48643V14.2815H5.21481Z" fill="white"/>
<path d="M10.523 14.2815V5.39258H12.4055C13.1369 5.39258 13.6896 5.59233 14.0636 5.99183C14.4459 6.39133 14.637 6.95729 14.637 7.68971V11.847C14.637 12.6793 14.4334 13.2952 14.0262 13.6947C13.6272 14.0859 13.0496 14.2815 12.2933 14.2815H10.523ZM11.7946 6.59108V13.083H12.3805C12.7379 13.083 12.9914 12.9956 13.141 12.8208C13.2906 12.6377 13.3654 12.3547 13.3654 11.9719V7.68971C13.3654 7.34014 13.2948 7.06965 13.1535 6.87822C13.0122 6.68679 12.7545 6.59108 12.3805 6.59108H11.7946Z" fill="white"/>
</svg>
