<svg width="23" height="22" viewBox="0 0 23 22" fill="none" xmlns="http://www.w3.org/2000/svg">
<path d="M3.06 2.88V9.54H4.8C5.34 9.54 5.77 9.47 6.09 9.33C6.41 9.17 6.66 8.95 6.84 8.67C7 8.39 7.11 8.05 7.17 7.65C7.23 7.23 7.26 6.75 7.26 6.21C7.26 5.67 7.23 5.2 7.17 4.8C7.11 4.38 6.99 4.02 6.81 3.72C6.43 3.16 5.71 2.88 4.65 2.88H3.06ZM0 21.36V0H4.92C8.52 0 10.32 2.09 10.32 6.27C10.32 7.53 10.12 8.6 9.72 9.48C9.34 10.36 8.66 11.07 7.68 11.61L10.98 21.36H7.74L4.89 12.24H3.06V21.36H0Z" fill="white"/>
<path d="M12.7734 21.36V0H17.3034C19.0634 0 20.3934 0.48 21.2934 1.44C22.2134 2.4 22.6734 3.76 22.6734 5.52V15.51C22.6734 17.51 22.1834 18.99 21.2034 19.95C20.2434 20.89 18.8534 21.36 17.0334 21.36H12.7734ZM15.8334 2.88V18.48H17.2434C18.1034 18.48 18.7134 18.27 19.0734 17.85C19.4334 17.41 19.6134 16.73 19.6134 15.81V5.52C19.6134 4.68 19.4434 4.03 19.1034 3.57C18.7634 3.11 18.1434 2.88 17.2434 2.88H15.8334Z" fill="white"/>
</svg>
